<svg width="43" height="30" viewBox="0 0 43 30" fill="none" xmlns="http://www.w3.org/2000/svg">
<rect x="0.5" y="0.5" width="42" height="29" rx="2.5" fill="#016FD0"/>
<path fill-rule="evenodd" clip-rule="evenodd" d="M8.35284 22.6893V15.9973H15.4689L16.2323 16.9883L17.0211 15.9973H42.8505V22.2278C42.8505 22.2278 42.175 22.6826 41.3938 22.6893H27.0915L26.2307 21.6344V22.6893H23.41V20.8886C23.41 20.8886 23.0247 21.1399 22.1916 21.1399H21.2315V22.6893H16.9607L16.1983 21.677L15.4242 22.6893H8.35284Z" fill="white"/>
<path fill-rule="evenodd" clip-rule="evenodd" d="M0.0429077 10.9536L1.6476 7.22849H4.42276L5.33344 9.31514V7.22849H8.78321L9.32534 8.73666L9.85092 7.22849H25.3368V7.9867C25.3368 7.9867 26.1509 7.22849 27.4888 7.22849L32.5134 7.24598L33.4084 9.30532V7.22849H36.2953L37.0899 8.41142V7.22849H40.0033V13.9205H37.0899L36.3284 12.7337V13.9205H32.0868L31.6603 12.8656H30.52L30.1004 13.9205H27.2239C26.0727 13.9205 25.3368 13.1778 25.3368 13.1778V13.9205H20.9998L20.139 12.8656V13.9205H4.01163L3.58538 12.8656H2.44874L2.0255 13.9205H0.0429077V10.9536Z" fill="white"/>
<path fill-rule="evenodd" clip-rule="evenodd" d="M0.0512085 13.0642L2.21559 8.05347H3.85647L6.01878 13.0642H4.57862L4.18133 12.0608H1.85969L1.46033 13.0642H0.0512085ZM3.72404 10.973L3.01637 9.21963L2.30664 10.973H3.72404Z" fill="#016FD0"/>
<path fill-rule="evenodd" clip-rule="evenodd" d="M6.16772 13.0634V8.05263L8.17016 8.06003L9.33485 11.2906L10.4717 8.05263H12.4581V13.0634H11.2V9.37125L9.86643 13.0634H8.76309L7.42579 9.37125V13.0634H6.16772Z" fill="#016FD0"/>
<path fill-rule="evenodd" clip-rule="evenodd" d="M13.3189 13.0634V8.05263H17.4242V9.17346H14.5902V10.0306H17.358V11.0855H14.5902V11.9755H17.4242V13.0634H13.3189Z" fill="#016FD0"/>
<path fill-rule="evenodd" clip-rule="evenodd" d="M18.1525 13.0642V8.05347H20.9522C21.8798 8.05347 22.711 8.62465 22.711 9.67909C22.711 10.5805 22.0102 11.1611 21.3308 11.2182L22.9862 13.0642H21.4488L19.9403 11.2841H19.4106V13.0642H18.1525ZM20.8487 9.1743H19.4106V10.2292H20.8673C21.1195 10.2292 21.4446 10.0346 21.4446 9.70175C21.4446 9.443 21.1937 9.1743 20.8487 9.1743Z" fill="#016FD0"/>
<path fill-rule="evenodd" clip-rule="evenodd" d="M24.5091 13.0634H23.2246V8.05263H24.5091V13.0634Z" fill="#016FD0"/>
<path fill-rule="evenodd" clip-rule="evenodd" d="M27.555 13.0634H27.2777C25.9361 13.0634 25.1216 12.011 25.1216 10.5786C25.1216 9.11087 25.927 8.05263 27.6212 8.05263H29.0117V9.23939H27.5704C26.8826 9.23939 26.3962 9.7738 26.3962 10.591C26.3962 11.5614 26.9524 11.9689 27.7536 11.9689H28.0847L27.555 13.0634Z" fill="#016FD0"/>
<path fill-rule="evenodd" clip-rule="evenodd" d="M28.1282 13.0642L30.2925 8.05347H31.9334L34.0957 13.0642H32.6556L32.2583 12.0608H29.9366L29.5373 13.0642H28.1282ZM31.801 10.973L31.0933 9.21963L30.3836 10.973H31.801Z" fill="#016FD0"/>
<path fill-rule="evenodd" clip-rule="evenodd" d="M34.2427 13.0634V8.05263H35.8422L37.8845 11.2008V8.05263H39.1425V13.0634H37.5948L35.5007 9.83277V13.0634H34.2427Z" fill="#016FD0"/>
<path fill-rule="evenodd" clip-rule="evenodd" d="M9.21362 21.8322V16.8214H13.3189V17.9423H10.4849V18.7994H13.2527V19.8543H10.4849V20.7443H13.3189V21.8322H9.21362Z" fill="#016FD0"/>
<path fill-rule="evenodd" clip-rule="evenodd" d="M29.3295 21.8322V16.8214H33.4348V17.9423H30.6009V18.7994H33.3554V19.8543H30.6009V20.7443H33.4348V21.8322H29.3295Z" fill="#016FD0"/>
<path fill-rule="evenodd" clip-rule="evenodd" d="M13.4782 21.8322L15.4771 19.3577L13.4306 16.8214H15.0156L16.2344 18.3894L17.4573 16.8214H18.9802L16.9607 19.3268L18.9632 21.8322H17.3785L16.1951 20.289L15.0405 21.8322H13.4782Z" fill="#016FD0"/>
<path fill-rule="evenodd" clip-rule="evenodd" d="M19.1127 21.833V16.8223H21.8916C23.0319 16.8223 23.698 17.5541 23.698 18.5077C23.698 19.6588 22.8487 20.2507 21.7281 20.2507H20.4038V21.833H19.1127ZM21.7985 17.9555H20.4038V19.1093H21.7943C22.1618 19.1093 22.4192 18.8668 22.4192 18.5324C22.4192 18.1764 22.1605 17.9555 21.7985 17.9555Z" fill="#016FD0"/>
<path fill-rule="evenodd" clip-rule="evenodd" d="M24.2443 21.8322V16.8214H27.0439C27.9715 16.8214 28.8027 17.3926 28.8027 18.4471C28.8027 19.3485 28.1019 19.929 27.4226 19.9861L29.0779 21.8322H27.5405L26.0321 20.0521H25.5024V21.8322H24.2443ZM26.9404 17.9423H25.5023V18.9972H26.9591C27.2112 18.9972 27.5364 18.8026 27.5364 18.4697C27.5364 18.211 27.2854 17.9423 26.9404 17.9423Z" fill="#016FD0"/>
<path fill-rule="evenodd" clip-rule="evenodd" d="M34.0175 21.8322V20.7443H36.5353C36.9079 20.7443 37.0692 20.5439 37.0692 20.324C37.0692 20.1134 36.9084 19.9004 36.5353 19.9004H35.3976C34.4086 19.9004 33.8578 19.3005 33.8578 18.3997C33.8578 17.5962 34.3622 16.8214 35.8318 16.8214H38.2817L37.752 17.9489H35.6332C35.2281 17.9489 35.1034 18.1605 35.1034 18.3626C35.1034 18.5703 35.2575 18.7994 35.5669 18.7994H36.7588C37.8613 18.7994 38.3397 19.4221 38.3397 20.2375C38.3397 21.1142 37.8066 21.8322 36.6988 21.8322H34.0175Z" fill="#016FD0"/>
<path fill-rule="evenodd" clip-rule="evenodd" d="M38.6349 21.8322V20.7443H41.1527C41.5253 20.7443 41.6866 20.5439 41.6866 20.324C41.6866 20.1134 41.5258 19.9004 41.1527 19.9004H40.015C39.026 19.9004 38.4752 19.3005 38.4752 18.3997C38.4752 17.5962 38.9796 16.8214 40.4492 16.8214H42.8991L42.3694 17.9489H40.2506C39.8455 17.9489 39.7209 18.1605 39.7209 18.3626C39.7209 18.5703 39.8749 18.7994 40.1844 18.7994H41.3762C42.4787 18.7994 42.9571 19.4221 42.9571 20.2375C42.9571 21.1142 42.424 21.8322 41.3162 21.8322H38.6349Z" fill="#016FD0"/>
<rect x="0.5" y="0.5" width="42" height="29" rx="2.5" stroke="#E6E7E8" />
</svg>
