<svg width="12" height="10" viewBox="0 0 12 10" fill="none" xmlns="http://www.w3.org/2000/svg">
<path d="M1.70711 4.55956C1.31658 4.16904 0.683418 4.16904 0.292893 4.55956C-0.0976311 4.95008 -0.0976311 5.58325 0.292893 5.97377L1.70711 4.55956ZM3.90912 8.17579L3.20201 8.88289L3.90912 8.17579ZM5.42263 8.06005L6.22904 8.65141L6.22904 8.65141L5.42263 8.06005ZM11.4064 1.59136C11.733 1.146 11.6367 0.520196 11.1914 0.193595C10.746 -0.133006 10.1202 -0.0367289 9.7936 0.408636L11.4064 1.59136ZM0.292893 5.97377L3.20201 8.88289L4.61623 7.46868L1.70711 4.55956L0.292893 5.97377ZM6.22904 8.65141L11.4064 1.59136L9.7936 0.408636L4.61623 7.46868L6.22904 8.65141ZM3.20201 8.88289C4.06876 9.74964 5.50416 9.63988 6.22904 8.65141L4.61623 7.46868L4.61623 7.46868L3.20201 8.88289Z" fill="#27AE60"/>
</svg>
