<svg width="43" height="30" viewBox="0 0 43 30" fill="none" xmlns="http://www.w3.org/2000/svg">
<path fill-rule="evenodd" clip-rule="evenodd" d="M0 0H43V30H0V0Z" fill="white"/>
<path fill-rule="evenodd" clip-rule="evenodd" d="M27.8542 7.82609C27.7032 7.82651 27.5526 7.83166 27.4044 7.84858C26.8245 7.91464 26.279 8.20477 25.8871 8.6524C25.5965 8.98447 25.3947 9.39572 25.3091 9.83545C25.2669 10.0525 25.2615 10.2702 25.2615 10.4902V11.9503V12.6581V12.8661C25.2615 12.9218 25.2486 12.9261 25.3079 12.9261H26.2358H27.1603H28.0904C28.394 12.9261 28.7001 12.9143 29.0029 12.9428C29.3011 12.9709 29.6048 13.059 29.846 13.2491C30.1852 13.5164 30.3232 13.9776 30.2072 14.4018C30.0959 14.809 29.7623 15.0821 29.381 15.1955C29.3387 15.208 29.296 15.2188 29.253 15.228C29.228 15.2333 29.1944 15.2323 29.1717 15.2433C29.1605 15.2486 29.132 15.2553 29.1529 15.2759C29.1582 15.281 29.1802 15.281 29.1965 15.2808C29.2032 15.2808 29.2089 15.2808 29.2121 15.281C29.3318 15.293 29.4509 15.3145 29.567 15.3473C29.9221 15.4477 30.2668 15.6636 30.4313 16.018C30.6261 16.4373 30.5268 16.9567 30.2122 17.282C29.9644 17.5383 29.6186 17.6691 29.2763 17.7125C29.1046 17.7341 28.9317 17.7297 28.7591 17.7297H27.829H26.8989H25.9744H25.5093H25.3931C25.3665 17.7297 25.2916 17.716 25.2699 17.7297C25.2571 17.7377 25.2615 17.7493 25.2615 17.7705V18.6616V20.234V21.823V22.7635C25.2615 22.773 25.2553 22.8142 25.2615 22.8218C25.2689 22.8308 25.3313 22.8229 25.3465 22.8229H25.4628H25.9279H26.8524H27.7825H28.7096C29.262 22.8229 29.7879 22.6743 30.2355 22.3271C30.8425 21.8563 31.2011 21.1076 31.2042 20.322C31.2043 20.2916 31.2044 20.2612 31.2044 20.2308V20.1863C31.2043 20.119 31.2042 20.0517 31.2042 19.9844V19.1562C31.2042 18.7553 31.2042 18.3544 31.2042 17.9535C31.2042 17.461 31.2042 16.9685 31.2042 16.476C31.2042 15.9326 31.2042 15.3891 31.2042 14.8456C31.2042 14.2833 31.2042 13.7209 31.2042 13.1585C31.2042 12.6162 31.2042 12.074 31.2042 11.5316C31.2042 11.0481 31.2042 10.5645 31.2042 10.0809C31.2042 9.68866 31.2042 9.29638 31.2042 8.9041V8.12044C31.2042 8.02477 31.2042 7.92909 31.2042 7.83335H31.1947C30.8992 7.83384 30.6036 7.83335 30.308 7.83335H29.381H28.4508C28.2671 7.83335 28.0803 7.82658 27.8941 7.82609H27.8542ZM26.4244 13.6852C26.4169 13.7024 26.4244 13.7406 26.4244 13.7592V14.4242V14.735C26.4244 14.7609 26.4124 14.8501 26.4306 14.8633C26.4463 14.8746 26.5138 14.8633 26.5339 14.8633H26.6456H26.8603H27.287C27.4271 14.8633 27.5675 14.8659 27.7075 14.8633C27.881 14.8602 28.0491 14.8082 28.1724 14.6808C28.312 14.5367 28.3619 14.3248 28.3194 14.1303C28.3001 14.0442 28.2628 13.9636 28.2077 13.8946C28.1021 13.7624 27.9447 13.6892 27.7781 13.6756C27.699 13.6692 27.6191 13.6722 27.5397 13.6722H27.1131H26.6782H26.4664C26.455 13.6722 26.4474 13.6712 26.4418 13.6712C26.4333 13.6712 26.4296 13.6735 26.4244 13.6852ZM27.341 15.6436H26.4242C26.4242 15.6558 26.4242 15.6681 26.4242 15.6804V16.3455V16.7382V16.8816C26.4242 16.9021 26.416 16.9453 26.4242 16.9641C26.4365 16.9926 26.5504 16.9765 26.5869 16.9765H26.819H27.2774H27.7383C27.8881 16.9765 28.0318 16.9669 28.1646 16.8846C28.3259 16.7846 28.4358 16.61 28.4635 16.4155C28.4951 16.1931 28.4233 15.9629 28.2632 15.812C28.1336 15.6898 27.9729 15.6449 27.802 15.6436C27.7507 15.6431 27.6995 15.643 27.6482 15.643C27.5458 15.643 27.4433 15.6436 27.341 15.6436Z" fill="#35A608"/>
<mask id="mask0" mask-type="alpha" maskUnits="userSpaceOnUse" x="11" y="7" width="21" height="16">
<path fill-rule="evenodd" clip-rule="evenodd" d="M27.8542 7.82609C27.7032 7.82651 27.5526 7.83166 27.4044 7.84858C26.8245 7.91464 26.279 8.20477 25.8871 8.6524C25.5965 8.98447 25.3947 9.39572 25.3091 9.83545C25.2669 10.0525 25.2615 10.2702 25.2615 10.4902V11.9503V12.6581V12.8661C25.2615 12.9218 25.2486 12.9261 25.3079 12.9261H26.2358H27.1603H28.0904C28.394 12.9261 28.7001 12.9143 29.0029 12.9428C29.3011 12.9709 29.6048 13.059 29.846 13.2491C30.1852 13.5164 30.3232 13.9776 30.2072 14.4018C30.0959 14.809 29.7623 15.0821 29.381 15.1955C29.3387 15.208 29.296 15.2188 29.253 15.228C29.228 15.2333 29.1944 15.2323 29.1717 15.2433C29.1605 15.2486 29.132 15.2553 29.1529 15.2759C29.1582 15.281 29.1802 15.281 29.1965 15.2808C29.2032 15.2808 29.2089 15.2808 29.2121 15.281C29.3318 15.293 29.4509 15.3145 29.567 15.3473C29.9221 15.4477 30.2668 15.6636 30.4313 16.018C30.6261 16.4373 30.5268 16.9567 30.2122 17.282C29.9644 17.5383 29.6186 17.6691 29.2763 17.7125C29.1046 17.7341 28.9317 17.7297 28.7591 17.7297H27.829H26.8989H25.9744H25.5093H25.3931C25.3665 17.7297 25.2916 17.716 25.2699 17.7297C25.2571 17.7377 25.2615 17.7493 25.2615 17.7705V18.6616V20.234V21.823V22.7635C25.2615 22.773 25.2553 22.8142 25.2615 22.8218C25.2689 22.8308 25.3313 22.8229 25.3465 22.8229H25.4628H25.9279H26.8524H27.7825H28.7096C29.262 22.8229 29.7879 22.6743 30.2355 22.3271C30.8425 21.8563 31.2011 21.1076 31.2042 20.322C31.2043 20.2916 31.2044 20.2612 31.2044 20.2308V20.1863C31.2043 20.119 31.2042 20.0517 31.2042 19.9844V19.1562C31.2042 18.7553 31.2042 18.3544 31.2042 17.9535C31.2042 17.461 31.2042 16.9685 31.2042 16.476C31.2042 15.9326 31.2042 15.3891 31.2042 14.8456C31.2042 14.2833 31.2042 13.7209 31.2042 13.1585C31.2042 12.6162 31.2042 12.074 31.2042 11.5316C31.2042 11.0481 31.2042 10.5645 31.2042 10.0809C31.2042 9.68866 31.2042 9.29638 31.2042 8.9041V8.12044C31.2042 8.02477 31.2042 7.92909 31.2042 7.83335H31.1947C30.8992 7.83384 30.6036 7.83335 30.308 7.83335H29.381H28.4508C28.2671 7.83335 28.0803 7.82658 27.8941 7.82609H27.8542ZM26.4244 13.6852C26.4169 13.7024 26.4244 13.7406 26.4244 13.7592V14.4242V14.735C26.4244 14.7609 26.4124 14.8501 26.4306 14.8633C26.4463 14.8746 26.5138 14.8633 26.5339 14.8633H26.6456H26.8603H27.287C27.4271 14.8633 27.5675 14.8659 27.7075 14.8633C27.881 14.8602 28.0491 14.8082 28.1724 14.6808C28.312 14.5367 28.3619 14.3248 28.3194 14.1303C28.3001 14.0442 28.2628 13.9636 28.2077 13.8946C28.1021 13.7624 27.9447 13.6892 27.7781 13.6756C27.699 13.6692 27.6191 13.6722 27.5397 13.6722H27.1131H26.6782H26.4664C26.455 13.6722 26.4474 13.6712 26.4418 13.6712C26.4333 13.6712 26.4296 13.6735 26.4244 13.6852ZM27.341 15.6436H26.4242C26.4242 15.6558 26.4242 15.6681 26.4242 15.6804V16.3455V16.7382V16.8816C26.4242 16.9021 26.416 16.9453 26.4242 16.9641C26.4365 16.9926 26.5504 16.9765 26.5869 16.9765H26.819H27.2774H27.7383C27.8881 16.9765 28.0318 16.9669 28.1646 16.8846C28.3259 16.7846 28.4358 16.61 28.4635 16.4155C28.4951 16.1931 28.4233 15.9629 28.2632 15.812C28.1336 15.6898 27.9729 15.6449 27.802 15.6436C27.7507 15.6431 27.6995 15.643 27.6482 15.643C27.5458 15.643 27.4433 15.6436 27.341 15.6436Z" fill="white"/>
<path fill-rule="evenodd" clip-rule="evenodd" d="M13.7701 7.85945C13.424 7.91707 13.0918 8.05369 12.8016 8.25505C12.1327 8.71913 11.7326 9.5049 11.7296 10.3318C11.7288 10.5749 11.7296 10.818 11.7296 11.0612V12.6097V14.41V15.895V16.3431V16.4615C11.7296 16.5073 11.7292 16.4977 11.78 16.5225C11.8366 16.55 11.8934 16.5767 11.9505 16.6028C12.4062 16.8099 12.8869 16.9675 13.383 17.0296C13.7396 17.0742 14.1204 17.0867 14.4572 16.9407C14.7269 16.8239 14.942 16.6082 15.0524 16.3285C15.1235 16.1488 15.1438 15.959 15.1438 15.7667V13.6354V13.1556V13.0026C15.1438 12.9873 15.1354 12.9395 15.1438 12.9267C15.1544 12.9107 15.2377 12.9209 15.2617 12.9209H15.4435H15.8018H17.2399V12.9649V15.0688C17.2399 15.3158 17.2404 15.5629 17.2399 15.8099C17.2395 16.0976 17.1983 16.3864 17.0835 16.6509C16.9691 16.9146 16.7857 17.1372 16.559 17.3066C16.009 17.7178 15.2802 17.825 14.6155 17.8558C14.14 17.8779 13.6625 17.8588 13.1891 17.8103C12.6998 17.7602 12.2048 17.6857 11.7296 17.5543V17.7249V18.8948V20.6016V22.1435V22.634V22.7717C11.7296 22.779 11.7244 22.8152 11.7296 22.8211C11.7395 22.8323 11.8296 22.8212 11.8474 22.8212H11.9679H12.2145H12.702H13.6792H14.6568C15.0712 22.8212 15.4963 22.8505 15.9014 22.7454C16.6097 22.5619 17.2116 22.0483 17.518 21.3681C17.6862 20.9949 17.7413 20.5981 17.7413 20.1916V19.5218V18.3934V16.9309V15.2664V13.5108V11.7949V10.2495V8.98644V8.13712V7.8263H17.4983H16.4828H15.4669H14.4541C14.409 7.8263 14.364 7.82609 14.3189 7.82609C14.1353 7.82609 13.9522 7.82912 13.7701 7.85945Z" fill="#0071BB"/>
</mask>
<g mask="url(#mask0)">
<path fill-rule="evenodd" clip-rule="evenodd" d="M13.7701 7.85945C13.424 7.91707 13.0918 8.05369 12.8016 8.25505C12.1327 8.71913 11.7326 9.5049 11.7296 10.3318C11.7288 10.5749 11.7296 10.818 11.7296 11.0612V12.6097V14.41V15.895V16.3431V16.4615C11.7296 16.5073 11.7292 16.4977 11.78 16.5225C11.8366 16.55 11.8934 16.5767 11.9505 16.6028C12.4062 16.8099 12.8869 16.9675 13.383 17.0296C13.7396 17.0742 14.1204 17.0867 14.4572 16.9407C14.7269 16.8239 14.942 16.6082 15.0524 16.3285C15.1235 16.1488 15.1438 15.959 15.1438 15.7667V13.6354V13.1556V13.0026C15.1438 12.9873 15.1354 12.9395 15.1438 12.9267C15.1544 12.9107 15.2377 12.9209 15.2617 12.9209H15.4435H15.8018H17.2399V12.9649V15.0688C17.2399 15.3158 17.2404 15.5629 17.2399 15.8099C17.2395 16.0976 17.1983 16.3864 17.0835 16.6509C16.9691 16.9146 16.7857 17.1372 16.559 17.3066C16.009 17.7178 15.2802 17.825 14.6155 17.8558C14.14 17.8779 13.6625 17.8588 13.1891 17.8103C12.6998 17.7602 12.2048 17.6857 11.7296 17.5543V17.7249V18.8948V20.6016V22.1435V22.634V22.7717C11.7296 22.779 11.7244 22.8152 11.7296 22.8211C11.7395 22.8323 11.8296 22.8212 11.8474 22.8212H11.9679H12.2145H12.702H13.6792H14.6568C15.0712 22.8212 15.4963 22.8505 15.9014 22.7454C16.6097 22.5619 17.2116 22.0483 17.518 21.3681C17.6862 20.9949 17.7413 20.5981 17.7413 20.1916V19.5218V18.3934V16.9309V15.2664V13.5108V11.7949V10.2495V8.98644V8.13712V7.8263H17.4983H16.4828H15.4669H14.4541C14.409 7.8263 14.364 7.82609 14.3189 7.82609C14.1353 7.82609 13.9522 7.82912 13.7701 7.85945Z" fill="#0071BB"/>
</g>
<mask id="mask1" mask-type="alpha" maskUnits="userSpaceOnUse" x="11" y="7" width="7" height="16">
<path fill-rule="evenodd" clip-rule="evenodd" d="M13.7701 7.85945C13.424 7.91707 13.0918 8.05369 12.8016 8.25505C12.1327 8.71913 11.7326 9.5049 11.7296 10.3318C11.7288 10.5749 11.7296 10.818 11.7296 11.0612V12.6097V14.41V15.895V16.3431V16.4615C11.7296 16.5073 11.7292 16.4977 11.78 16.5225C11.8366 16.55 11.8934 16.5767 11.9505 16.6028C12.4062 16.8099 12.8869 16.9675 13.383 17.0296C13.7396 17.0742 14.1204 17.0867 14.4572 16.9407C14.7269 16.8239 14.942 16.6082 15.0524 16.3285C15.1235 16.1488 15.1438 15.959 15.1438 15.7667V13.6354V13.1556V13.0026C15.1438 12.9873 15.1354 12.9395 15.1438 12.9267C15.1544 12.9107 15.2377 12.9209 15.2617 12.9209H15.4435H15.8018H17.2399V12.9649V15.0688C17.2399 15.3158 17.2404 15.5629 17.2399 15.8099C17.2395 16.0976 17.1983 16.3864 17.0835 16.6509C16.9691 16.9146 16.7857 17.1372 16.559 17.3066C16.009 17.7178 15.2802 17.825 14.6155 17.8558C14.14 17.8779 13.6625 17.8588 13.1891 17.8103C12.6998 17.7602 12.2048 17.6857 11.7296 17.5543V17.7249V18.8948V20.6016V22.1435V22.634V22.7717C11.7296 22.779 11.7244 22.8152 11.7296 22.8211C11.7395 22.8323 11.8296 22.8212 11.8474 22.8212H11.9679H12.2145H12.702H13.6792H14.6568C15.0712 22.8212 15.4963 22.8505 15.9014 22.7454C16.6097 22.5619 17.2116 22.0483 17.518 21.3681C17.6862 20.9949 17.7413 20.5981 17.7413 20.1916V19.5218V18.3934V16.9309V15.2664V13.5108V11.7949V10.2495V8.98644V8.13712V7.8263H17.4983H16.4828H15.4669H14.4541C14.409 7.8263 14.364 7.82609 14.3189 7.82609C14.1353 7.82609 13.9522 7.82912 13.7701 7.85945Z" fill="white"/>
</mask>
<g mask="url(#mask1)">
</g>
<mask id="mask2" mask-type="alpha" maskUnits="userSpaceOnUse" x="18" y="7" width="7" height="16">
<path fill-rule="evenodd" clip-rule="evenodd" d="M20.7514 7.83226C20.4908 7.84932 20.2329 7.91003 19.9913 8.01264C19.4588 8.23913 19.016 8.66187 18.7551 9.19227C18.5842 9.53955 18.4979 9.92557 18.4963 10.3147C18.4961 10.3776 18.4963 10.4406 18.4963 10.5036V11.6077V13.5703C18.5126 13.5559 18.5292 13.5416 18.5462 13.5275C18.6058 13.4777 18.6679 13.4311 18.7318 13.3874C19.1301 13.1158 19.5948 12.9636 20.061 12.8737C20.4405 12.8006 20.8269 12.7692 21.2126 12.7615C21.5921 12.7541 21.9726 12.7674 22.35 12.8096C22.7351 12.8526 23.1178 12.9196 23.4965 13.0034C23.543 13.0137 23.5894 13.0242 23.6358 13.0352C23.6606 13.0411 23.7557 13.0491 23.7689 13.0687C23.7783 13.0828 23.7689 13.1388 23.7689 13.155V13.3574V14.1205C23.7151 14.0925 23.6611 14.0651 23.6065 14.0386C23.1946 13.8375 22.7603 13.6881 22.3096 13.6147C21.7041 13.516 21.0189 13.5187 20.496 13.8927C19.9913 14.2538 19.8147 14.8944 19.8692 15.5036C19.9223 16.0965 20.2399 16.6048 20.7746 16.8418C21.3029 17.0759 21.9158 17.0444 22.4691 16.9315C22.923 16.8389 23.3557 16.6691 23.7689 16.4564V16.5318V17.4212C23.7689 17.4378 23.7785 17.494 23.7689 17.5082C23.756 17.5273 23.6595 17.5355 23.6358 17.5411C23.5392 17.5638 23.4423 17.5851 23.3452 17.6053C22.9637 17.6845 22.5783 17.7474 22.1906 17.7832C21.8111 17.8183 21.4277 17.8252 21.0471 17.8104C20.6585 17.7954 20.2695 17.754 19.8895 17.6671C19.3885 17.5525 18.8899 17.3555 18.4963 17.007V17.1708V18.3162V20.0252V21.6891V22.6757C18.4963 22.6873 18.4888 22.7361 18.4963 22.7455C18.5126 22.7658 18.6477 22.7491 18.6794 22.7491H19.1729H20.1651H21.152C21.5003 22.7491 21.8547 22.7683 22.2022 22.7427C22.8323 22.6963 23.4291 22.3888 23.8445 21.8973C24.2424 21.4264 24.4386 20.8306 24.4386 20.2096V19.6527V18.588V17.1499V15.4718V13.6939V11.9352V10.3416V9.03357V8.15098V7.82721H24.2564H22.7244H21.1984C21.1263 7.82721 21.0539 7.82609 20.9815 7.82609C20.9047 7.82609 20.8279 7.82735 20.7514 7.83226Z" fill="white"/>
</mask>
<g mask="url(#mask2)">
<path fill-rule="evenodd" clip-rule="evenodd" d="M20.7514 7.83227C20.4908 7.84933 20.2329 7.91004 19.9913 8.01265C19.4588 8.23914 19.016 8.66188 18.7551 9.19228C18.5842 9.53956 18.4979 9.92558 18.4963 10.3147C18.4961 10.3776 18.4963 10.4406 18.4963 10.5036V11.6077V13.5703C18.5126 13.5559 18.5292 13.5416 18.5462 13.5275C18.6058 13.4777 18.6679 13.4311 18.7318 13.3874C19.1301 13.1158 19.5948 12.9636 20.061 12.8737C20.4405 12.8006 20.8269 12.7692 21.2126 12.7615C21.5921 12.7541 21.9726 12.7674 22.35 12.8096C22.7351 12.8526 23.1178 12.9196 23.4965 13.0034C23.543 13.0137 23.5894 13.0242 23.6358 13.0352C23.6606 13.0411 23.7557 13.0491 23.7689 13.0687C23.7783 13.0828 23.7689 13.1388 23.7689 13.155V13.3574V14.1205C23.7151 14.0925 23.6611 14.0651 23.6065 14.0386C23.1946 13.8375 22.7603 13.6881 22.3096 13.6147C21.7041 13.516 21.0189 13.5187 20.496 13.8927C19.9913 14.2538 19.8147 14.8944 19.8692 15.5036C19.9223 16.0965 20.2399 16.6048 20.7746 16.8418C21.3029 17.0759 21.9158 17.0444 22.4691 16.9315C22.923 16.8389 23.3557 16.6691 23.7689 16.4564V16.5318V17.4212C23.7689 17.4378 23.7785 17.494 23.7689 17.5082C23.756 17.5273 23.6595 17.5355 23.6358 17.5411C23.5392 17.5638 23.4423 17.5851 23.3452 17.6053C22.9637 17.6845 22.5783 17.7474 22.1906 17.7832C21.8111 17.8183 21.4277 17.8252 21.0471 17.8104C20.6585 17.7954 20.2695 17.754 19.8895 17.6671C19.3885 17.5525 18.8899 17.3555 18.4963 17.007V17.1708V18.3162V20.0252V21.6891V22.6757C18.4963 22.6873 18.4888 22.7361 18.4963 22.7455C18.5126 22.7658 18.6477 22.7491 18.6794 22.7491H19.1729H20.1651H21.152C21.5003 22.7491 21.8547 22.7683 22.2022 22.7427C22.8323 22.6963 23.4291 22.3888 23.8445 21.8973C24.2424 21.4264 24.4386 20.8306 24.4386 20.2096V19.6527V18.588V17.1499V15.4718V13.6939V11.9352V10.3416V9.03358V8.15099V7.82722H24.2564H22.7244H21.1984C21.1263 7.82722 21.0539 7.8261 20.9815 7.8261C20.9047 7.8261 20.8279 7.82736 20.7514 7.83227Z" fill="#ED1C25"/>
</g>
<rect x="0.5" y="0.5" width="42" height="29" rx="2.5" stroke="#E6E7E8"/>
</svg>
