<svg width="43" height="30" viewBox="0 0 43 30" fill="none" xmlns="http://www.w3.org/2000/svg">
<path fill-rule="evenodd" clip-rule="evenodd" d="M0 0H43V30H0V0Z" fill="white"/>
<path d="M25.0248 9.11257H18.0679V21.7563H25.0248V9.11257Z" fill="#7673C0"/>
<path fill-rule="evenodd" clip-rule="evenodd" d="M18.5119 15.4333C18.5099 12.9664 19.6297 10.6357 21.5486 9.11257C18.2888 6.52175 13.6075 6.89913 10.7947 9.97948C7.98189 13.0598 7.98189 17.809 10.7947 20.8893C13.6075 23.9697 18.2888 24.3471 21.5486 21.7563C19.6291 20.2327 18.5093 17.9009 18.5119 15.4333Z" fill="#EB001B"/>
<path fill-rule="evenodd" clip-rule="evenodd" d="M33.6535 20.2096V20.7225H33.5983V20.2096H33.4945V20.1035H33.7573V20.2096H33.6535ZM34.1637 20.1035V20.7225L34.1063 20.7269V20.2582L34.0201 20.6606H33.9605L33.8744 20.2582V20.7225H33.817V20.1035H33.8987L33.9914 20.5456L34.0842 20.1035H34.1637Z" fill="#00A1DF"/>
<path fill-rule="evenodd" clip-rule="evenodd" d="M34.411 15.4333C34.411 18.5118 32.6728 21.32 29.9347 22.6653C27.1967 24.0105 23.9394 23.6567 21.5464 21.754C23.4644 20.2296 24.5843 17.8992 24.5843 15.4322C24.5843 12.9652 23.4644 10.6347 21.5464 9.11033C23.9398 7.20741 27.1975 6.85375 29.9357 8.19959C32.674 9.54542 34.4118 12.3544 34.411 15.4333Z" fill="#00A1DF"/>
<rect x="0.5" y="0.5" width="42" height="29" rx="2.5" stroke="#E6E7E8"/>
</svg>
