<svg width="43" height="30" viewBox="0 0 43 30" fill="none" xmlns="http://www.w3.org/2000/svg">
<path fill-rule="evenodd" clip-rule="evenodd" d="M0 0H43V30H0V0Z" fill="white"/>
<g opacity="0.01">
<path opacity="0.01" d="M34.4099 6.52174H8.4697V23.4587H34.4099V6.52174Z" fill="white"/>
</g>
<path d="M24.8622 9.47256H18.0193V20.506H24.8622V9.47256Z" fill="#FF5F00"/>
<path fill-rule="evenodd" clip-rule="evenodd" d="M18.7242 14.9903C18.7224 12.8376 19.7235 10.8036 21.4388 9.47451C18.5247 7.21365 14.34 7.54297 11.8255 10.231C9.31098 12.9191 9.31098 17.0634 11.8255 19.7514C14.34 22.4395 18.5247 22.7688 21.4388 20.5079C19.7229 19.1784 18.7218 17.1436 18.7242 14.9903Z" fill="#EB001B"/>
<path fill-rule="evenodd" clip-rule="evenodd" d="M32.2735 19.1605V19.619H32.2257V19.1605H32.1236V19.0657H32.3821V19.1605H32.2735ZM32.7752 19.0657V19.619H32.7209V19.2001L32.6362 19.5597H32.5775L32.4928 19.2001V19.619H32.4364V19.0657H32.5146L32.6058 19.4609L32.697 19.0657H32.7752Z" fill="#F79E1B"/>
<path fill-rule="evenodd" clip-rule="evenodd" d="M32.939 14.9903C32.939 17.6767 31.3851 20.1272 28.9375 21.3012C26.4898 22.4751 23.5781 22.1664 21.4388 20.506C23.1534 19.1758 24.1545 17.1421 24.1545 14.9893C24.1545 12.8365 23.1534 10.8028 21.4388 9.47256C23.5781 7.81221 26.4898 7.50344 28.9375 8.67738C31.3851 9.85133 32.939 12.3019 32.939 14.9883V14.9903Z" fill="#F79E1B"/>
<rect x="0.5" y="0.5" width="42" height="29" rx="2.5" stroke="#E6E7E8"/>
</svg>
