<svg width="43" height="30" viewBox="0 0 43 30" fill="none" xmlns="http://www.w3.org/2000/svg">
<path d="M43 0H0V30H43V0Z" fill="white"/>
<path d="M9.63763 3.00055H19.3719C20.7307 3.00055 21.5759 4.1081 21.2589 5.47143L16.7269 24.9291C16.407 26.2876 15.0466 27.3961 13.6868 27.3961H3.95347C2.59655 27.3961 1.74951 26.2876 2.0665 24.9291L6.6004 5.47143C6.91738 4.1081 8.27715 3.00055 9.63763 3.00055Z" fill="#E21836"/>
<path d="M18.5618 3H29.7559C31.1145 3 30.5019 4.10755 30.1823 5.47088L25.651 24.9285C25.3331 26.2871 25.4322 27.3956 24.0708 27.3956H12.8766C11.5152 27.3956 10.6727 26.2871 10.9925 24.9285L15.5236 5.47088C15.8453 4.10755 17.2022 3 18.5618 3Z" fill="#00447C"/>
<path d="M29.3119 3H39.0462C40.4069 3 41.2521 4.10755 40.9325 5.47088L36.4012 24.9285C36.0813 26.2871 34.7199 27.3956 33.3594 27.3956H23.6297C22.2683 27.3956 21.4238 26.2871 21.7427 24.9285L26.2747 5.47088C26.5917 4.10755 27.9505 3 29.3119 3Z" fill="#007B84"/>
<path d="M12.1797 9.23562C11.1787 9.24582 10.8831 9.23562 10.7886 9.21332C10.7523 9.38581 10.0769 12.5018 10.075 12.5044C9.92951 13.1348 9.82369 13.5842 9.46423 13.8744C9.26018 14.0431 9.02197 14.1245 8.74579 14.1245C8.30187 14.1245 8.04325 13.904 7.99983 13.486L7.99153 13.3424C7.99153 13.3424 8.12677 12.498 8.12677 12.4933C8.12677 12.4933 8.83572 9.65368 8.96265 9.27833C8.9693 9.25697 8.97119 9.24582 8.97286 9.23562C7.59292 9.24772 7.3483 9.23562 7.33146 9.21332C7.3222 9.24392 7.28804 9.41997 7.28804 9.41997L6.56414 12.6204L6.50198 12.8919L6.38168 13.7797C6.38168 14.0431 6.43341 14.258 6.53638 14.4398C6.86618 15.0161 7.80693 15.1025 8.33912 15.1025C9.02482 15.1025 9.66804 14.9568 10.1027 14.6908C10.8572 14.245 11.0546 13.5481 11.2307 12.9289L11.3123 12.6112C11.3123 12.6112 12.0426 9.66198 12.1667 9.27833C12.1714 9.25697 12.1733 9.24582 12.1797 9.23562ZM14.6645 11.6148C14.4885 11.6148 14.1668 11.6575 13.8778 11.7991C13.7729 11.853 13.6737 11.9151 13.5691 11.9771L13.6635 11.6361L13.6118 11.5787C12.9989 11.7028 12.8618 11.7194 12.2957 11.7991L12.2482 11.8307C12.1825 12.3757 12.1241 12.7854 11.8805 13.8567C11.7877 14.2515 11.6914 14.6501 11.5948 15.044L11.6209 15.094C12.201 15.0634 12.3771 15.0634 12.8813 15.0717L12.9221 15.0274C12.9861 14.6992 12.9944 14.6223 13.1363 13.9578C13.203 13.6427 13.342 12.9503 13.4106 12.7038C13.5366 12.6455 13.6609 12.588 13.7795 12.588C14.0621 12.588 14.0277 12.8346 14.0168 12.9328C14.0047 13.0977 13.9017 13.6363 13.7961 14.0987L13.7257 14.3972C13.6766 14.6176 13.6227 14.8318 13.5736 15.0504L13.5949 15.094C14.1668 15.0634 14.3411 15.0634 14.8294 15.0717L14.8869 15.0274C14.9751 14.5149 15.001 14.3777 15.1576 13.6315L15.2363 13.2887C15.3894 12.6177 15.4663 12.2775 15.3505 12.0003C15.228 11.6897 14.9343 11.6148 14.6645 11.6148ZM17.4403 12.3173C17.1364 12.3757 16.9426 12.4146 16.7499 12.4397C16.5589 12.4703 16.3727 12.4981 16.0789 12.5389L16.0557 12.56L16.0343 12.5769C16.0037 12.7956 15.9824 12.9847 15.9418 13.207C15.9074 13.4369 15.8545 13.6982 15.7683 14.0735C15.7017 14.3609 15.6673 14.461 15.6293 14.5621C15.5923 14.6631 15.5515 14.7614 15.4765 15.0439L15.4941 15.07L15.5088 15.094C15.7833 15.081 15.9629 15.0717 16.1475 15.07C16.3318 15.0634 16.5228 15.07 16.8185 15.0717L16.8443 15.0506L16.8721 15.0273C16.9148 14.7725 16.9212 14.7039 16.9473 14.5796C16.9732 14.4463 17.0178 14.2617 17.1272 13.7686C17.1789 13.5371 17.2365 13.3062 17.2902 13.0699C17.3459 12.8345 17.4043 12.6027 17.4598 12.3711L17.4515 12.3432L17.4403 12.3173ZM17.4468 11.3701C17.1706 11.2071 16.6859 11.2588 16.3597 11.484C16.0344 11.7046 15.9974 12.0178 16.2726 12.1829C16.544 12.3414 17.0307 12.2942 17.3541 12.0672C17.6786 11.8418 17.7192 11.5314 17.4468 11.3701ZM19.1171 15.1451C19.6758 15.1451 20.2486 14.9911 20.6797 14.5341C21.0114 14.1635 21.1635 13.6121 21.2161 13.3851C21.3877 12.6324 21.2541 12.2811 21.0864 12.067C20.8315 11.7408 20.3812 11.6362 19.914 11.6362C19.6331 11.6362 18.964 11.6639 18.4413 12.1458C18.066 12.4934 17.8925 12.9651 17.7879 13.4173C17.6823 13.8781 17.5608 14.7076 18.3236 15.0163C18.559 15.1173 18.8983 15.1451 19.1171 15.1451ZM19.0734 13.4517C19.2022 12.8818 19.3543 12.4035 19.7425 12.4035C20.0467 12.4035 20.0687 12.7594 19.9335 13.3312C19.9093 13.4581 19.7982 13.9301 19.6481 14.131C19.5432 14.2793 19.4191 14.3692 19.282 14.3692C19.2411 14.3692 18.9984 14.3692 18.9946 14.0088C18.9927 13.8309 19.029 13.6491 19.0734 13.4517ZM22.6129 15.0718L22.6566 15.0274C22.7185 14.6993 22.7287 14.6222 22.8658 13.9578C22.9344 13.6427 23.0763 12.9504 23.143 12.7039C23.2692 12.6453 23.3914 12.5879 23.5138 12.5879C23.7945 12.5879 23.7603 12.8344 23.7492 12.9326C23.739 13.0977 23.636 13.6361 23.5285 14.0985L23.4619 14.397C23.4108 14.6177 23.3553 14.8317 23.3062 15.0504L23.3276 15.0941C23.9013 15.0635 24.069 15.0635 24.5602 15.0718L24.6195 15.0274C24.7056 14.5147 24.7288 14.3776 24.8902 13.6316L24.9671 13.2885C25.1208 12.6175 25.1986 12.2775 25.0847 12.0004C24.9588 11.6898 24.6631 11.6148 24.3972 11.6148C24.2209 11.6148 23.8975 11.6573 23.6101 11.7992C23.5074 11.8531 23.4044 11.915 23.3034 11.9771L23.3914 11.6362L23.3442 11.5785C22.7316 11.7029 22.5916 11.7195 22.0262 11.7992L21.9827 11.8308C21.9142 12.3758 21.8584 12.7853 21.6147 13.8568C21.522 14.2516 21.4256 14.6502 21.3293 15.044L21.3552 15.0941C21.9362 15.0635 22.1097 15.0635 22.6129 15.0718ZM26.8281 15.094C26.8641 14.9179 27.0784 13.8744 27.0803 13.8744C27.0803 13.8744 27.2627 13.1088 27.2739 13.081C27.2739 13.081 27.3313 13.0013 27.3887 12.9697H27.4732C28.2701 12.9697 29.1701 12.9697 29.8755 12.4508C30.3555 12.0949 30.6836 11.5694 30.83 10.9307C30.868 10.7741 30.896 10.5878 30.896 10.4016C30.896 10.157 30.8468 9.91496 30.705 9.72586C30.3453 9.22262 29.629 9.21336 28.8021 9.20957C28.7995 9.20957 28.3945 9.21336 28.3945 9.21336C27.336 9.22641 26.9116 9.22262 26.7372 9.20126C26.7225 9.27837 26.6947 9.41551 26.6947 9.41551C26.6947 9.41551 26.3156 11.1727 26.3156 11.1755C26.3156 11.1755 25.4083 14.9115 25.3656 15.0876C26.2897 15.0764 26.6686 15.0764 26.8281 15.094ZM27.5306 11.9725C27.5306 11.9725 27.9337 10.2189 27.9318 10.2255L27.9449 10.1356L27.9506 10.067L28.1117 10.0837C28.1117 10.0837 28.943 10.1551 28.9625 10.157C29.2906 10.2839 29.4259 10.6111 29.3314 11.0382C29.2453 11.4285 28.9921 11.7566 28.6669 11.9151C28.399 12.0494 28.0708 12.0605 27.7327 12.0605H27.514L27.5306 11.9725ZM30.0405 13.4842C29.9339 13.9383 29.8115 14.7678 30.5705 15.0634C30.8125 15.1664 31.0294 15.197 31.2498 15.1859C31.4826 15.1733 31.6983 15.0566 31.898 14.8886C31.88 14.9576 31.862 15.0267 31.8439 15.0959L31.8783 15.1403C32.4243 15.1173 32.5937 15.1173 33.1852 15.1218L33.2388 15.081C33.3252 14.5733 33.4066 14.0802 33.631 13.1089C33.7404 12.6436 33.8495 12.1828 33.9618 11.7194L33.9442 11.6684C33.3335 11.7816 33.1702 11.8058 32.5828 11.8891L32.5382 11.9254C32.5322 11.9726 32.5261 12.0179 32.5204 12.0632C32.429 11.9156 32.2966 11.7897 32.0923 11.7111C31.8311 11.6084 31.2176 11.7408 30.6901 12.221C30.3195 12.5639 30.1416 13.0336 30.0405 13.4842ZM31.3231 13.512C31.4539 12.9523 31.6041 12.4787 31.9932 12.4787C32.2392 12.4787 32.3688 12.7057 32.3424 13.093C32.3215 13.1895 32.299 13.2913 32.2722 13.4064C32.2333 13.5727 32.1911 13.7376 32.15 13.9027C32.1082 14.0157 32.0596 14.1222 32.0062 14.1932C31.9061 14.335 31.6679 14.4231 31.5307 14.4231C31.4918 14.4231 31.2517 14.4231 31.2434 14.0691C31.2415 13.8928 31.2778 13.7113 31.3231 13.512ZM38.0212 11.6639L37.974 11.61C37.3697 11.7325 37.2603 11.7519 36.7051 11.8269L36.6643 11.8677C36.6624 11.8743 36.6608 11.8845 36.6579 11.8938L36.656 11.8845C36.2427 12.8381 36.2548 12.6324 35.9184 13.3831C35.9165 13.3489 35.9165 13.3276 35.9146 13.2913L35.8303 11.6639L35.7774 11.61C35.1444 11.7325 35.1295 11.7519 34.5448 11.8269L34.4993 11.8677C34.4929 11.8872 34.4929 11.9085 34.4891 11.9318L34.4929 11.9401C34.566 12.3135 34.5484 12.2302 34.6217 12.8196C34.6559 13.1088 34.7014 13.3997 34.7356 13.6854C34.7933 14.1635 34.8255 14.3988 34.896 15.1284C34.5012 15.78 34.4077 16.0265 34.0276 16.5983L34.0302 16.604L33.7626 17.0273C33.732 17.0719 33.7042 17.1025 33.6653 17.1155C33.6226 17.1366 33.5671 17.1404 33.49 17.1404H33.3417L33.1212 17.8736L33.8774 17.8866C34.3213 17.8847 34.6004 17.6771 34.7505 17.3981L35.226 16.5833H35.2184L35.2685 16.5259C35.5883 15.8374 38.0212 11.6639 38.0212 11.6639ZM30.0405 21.2927H29.7197L30.9069 17.3657H31.3008L31.4258 16.9612L31.4379 17.411C31.4232 17.6891 31.642 17.9356 32.2167 17.8948H32.8812L33.11 17.1387H32.8599C32.7161 17.1387 32.6494 17.1024 32.6577 17.0245L32.6456 16.5668H31.4149V16.5692C31.017 16.5775 29.8288 16.6074 29.5882 16.6715C29.2971 16.7465 28.9903 16.9671 28.9903 16.9671L29.1108 16.5621H27.9596L27.7198 17.3657L26.5166 21.3527H26.2831L26.0542 22.1034H28.3471L28.2702 22.3537H29.4001L29.4751 22.1034H29.792L30.0405 21.2927ZM29.0997 18.1636C28.9153 18.2147 28.5723 18.3694 28.5723 18.3694L28.8774 17.3657H29.792L29.5714 18.097C29.5714 18.097 29.2888 18.1136 29.0997 18.1636ZM29.1173 19.5974C29.1173 19.5974 28.8299 19.6335 28.6408 19.6762C28.4546 19.7327 28.1053 19.9106 28.1053 19.9106L28.4204 18.8662H29.3398L29.1173 19.5974ZM28.6048 21.3019H27.6873L27.9532 20.4205H28.8679L28.6048 21.3019ZM30.8143 18.8662H32.1368L31.9468 19.4817H30.6067L30.4055 20.1545H31.5781L30.6902 21.4047C30.6281 21.4965 30.5723 21.529 30.5104 21.5549C30.4482 21.5864 30.3666 21.6234 30.2722 21.6234H29.9469L29.7234 22.3604H30.5742C31.0165 22.3604 31.2777 22.1592 31.4706 21.8951L32.0794 21.0618L32.2101 21.9079C32.2379 22.0664 32.3518 22.1592 32.4289 22.1953C32.5141 22.238 32.6021 22.3113 32.7264 22.3222C32.8598 22.3279 32.9561 22.3324 33.0202 22.3324H33.4382L33.6893 21.5077H33.5244C33.4297 21.5077 33.2667 21.4918 33.2389 21.4621C33.2112 21.426 33.2112 21.3705 33.1962 21.2861L33.0636 20.4381H32.5205L32.7587 20.1545H34.0962L34.3019 19.4817H33.0636L33.2565 18.8662H34.491L34.7199 18.1072H31.0395L30.8143 18.8662ZM19.6443 21.4733L19.953 20.4464H21.2216L21.4535 19.6827H20.1836L20.3775 19.0506H21.6184L21.8483 18.3111H18.7434L18.5182 19.0506H19.2236L19.0355 19.6827H18.3282L18.0938 20.4595H18.7989L18.3875 21.8181C18.332 21.9979 18.4136 22.0665 18.4653 22.15C18.5182 22.2314 18.5719 22.2852 18.6924 22.3159C18.8167 22.3436 18.9019 22.3602 19.0177 22.3602H20.4479L20.7027 21.5141L20.0688 21.6012C19.9463 21.6012 19.6073 21.5865 19.6443 21.4733ZM19.7898 16.5575L19.4683 17.1385C19.3995 17.2655 19.3376 17.3442 19.2818 17.3806C19.2327 17.4112 19.1354 17.424 18.9945 17.424H18.8268L18.6025 18.1673H19.1596C19.4275 18.1673 19.6332 18.0691 19.7315 18.02C19.837 17.9635 19.8648 17.9958 19.9464 17.917L20.1346 17.754H21.8742L22.1051 16.98H20.8317L21.054 16.5575H19.7898ZM22.3581 21.4883C22.3284 21.4455 22.3498 21.3703 22.3951 21.2137L22.8706 19.64H24.562C24.8085 19.6364 24.9865 19.6335 25.1023 19.6252C25.2266 19.6122 25.3618 19.5678 25.5092 19.4881C25.6613 19.4046 25.7391 19.3166 25.8048 19.2155C25.8781 19.1147 25.9958 18.894 26.0969 18.5538L26.6946 16.5622L24.9393 16.5724C24.9393 16.5724 24.3988 16.6521 24.1608 16.7401C23.9207 16.8383 23.5776 17.1126 23.5776 17.1126L23.7361 16.5667H22.6518L21.1338 21.6012C21.0799 21.7967 21.0439 21.9386 21.0356 22.0238C21.0327 22.1156 21.1513 22.2065 21.2282 22.275C21.3191 22.3436 21.4534 22.3324 21.5822 22.3436C21.7177 22.3538 21.9104 22.3602 22.1763 22.3602H23.0096L23.2654 21.4966L22.5194 21.567C22.4397 21.567 22.382 21.5243 22.3581 21.4883ZM23.1773 18.577H24.954L24.8411 18.931C24.8252 18.9393 24.7872 18.9134 24.6064 18.9348H23.068L23.1773 18.577ZM23.5332 17.3897H25.3248L25.196 17.8161C25.196 17.8161 24.3516 17.8078 24.2163 17.8327C23.6213 17.9357 23.2737 18.2536 23.2737 18.2536L23.5332 17.3897ZM24.8808 20.1165C24.8661 20.1694 24.8429 20.2016 24.8104 20.2258C24.7743 20.2491 24.7159 20.2574 24.6288 20.2574H24.3757L24.3906 19.8263H23.3376L23.2949 21.9339C23.2933 22.086 23.308 22.174 23.4193 22.2445C23.5305 22.3325 23.8734 22.3437 24.3349 22.3437H24.9947L25.2329 21.5548L24.6585 21.5863L24.4675 21.5975C24.4414 21.5863 24.4165 21.5761 24.3887 21.5484C24.3645 21.5244 24.3237 21.5391 24.3304 21.387L24.3349 20.8468L24.9373 20.8218C25.2626 20.8218 25.4016 20.716 25.5202 20.6152C25.6334 20.5186 25.6704 20.4076 25.7131 20.2574L25.8142 19.7791H24.9864L24.8808 20.1165Z" fill="#FEFEFE"/>
<rect x="0.5" y="0.5" width="42" height="29" rx="2.5" stroke="#E6E7E8"/>
</svg>
