<svg width="43" height="30" viewBox="0 0 43 30" fill="none" xmlns="http://www.w3.org/2000/svg">
<path fill-rule="evenodd" clip-rule="evenodd" d="M0 0H43V30H0V0Z" fill="white"/>
<path fill-rule="evenodd" clip-rule="evenodd" d="M19.56 19.3983H17.2539L18.6963 10.7034H21.0023L19.56 19.3983Z" fill="#0742A6"/>
<path fill-rule="evenodd" clip-rule="evenodd" d="M27.9201 10.916C27.4652 10.74 26.7437 10.5458 25.8516 10.5458C23.5742 10.5458 21.9705 11.7297 21.9606 13.4224C21.9417 14.6712 23.1089 15.3648 23.9818 15.7812C24.874 16.2067 25.1773 16.4844 25.1773 16.8637C25.1682 17.4462 24.4563 17.7147 23.7924 17.7147C22.8716 17.7147 22.3783 17.5763 21.6286 17.2522L21.3249 17.1133L21.0022 19.0651C21.5431 19.3053 22.5396 19.5185 23.5742 19.5278C25.994 19.5278 27.5694 18.3622 27.588 16.5584C27.5972 15.5687 26.9809 14.8102 25.6522 14.1905C24.8456 13.7927 24.3517 13.5244 24.3517 13.1173C24.3611 12.7473 24.7695 12.3683 25.68 12.3683C26.4297 12.3497 26.9806 12.5254 27.3978 12.7012L27.6064 12.7935L27.9201 10.916Z" fill="#0742A6"/>
<path fill-rule="evenodd" clip-rule="evenodd" d="M32.048 10.7034H33.8318L35.6923 19.3981H33.557C33.557 19.3981 33.3481 18.3991 33.2819 18.0939H30.3209C30.2353 18.325 29.8369 19.3981 29.8369 19.3981H27.4171L30.8427 11.4248C31.08 10.8605 31.4979 10.7034 32.048 10.7034ZM31.9059 13.8852C31.9059 13.8852 31.1751 15.8185 30.9852 16.318H32.902C32.8072 15.8833 32.3705 13.802 32.3705 13.802L32.2093 13.0528C32.1414 13.2457 32.0433 13.511 31.9771 13.6899C31.9322 13.8111 31.902 13.8927 31.9059 13.8852Z" fill="#0742A6"/>
<path fill-rule="evenodd" clip-rule="evenodd" d="M15.3277 10.7034L13.0692 16.6325L12.8224 15.43C12.4048 14.0425 11.0953 12.535 9.63394 11.7854L11.7026 19.389H14.1413L17.7662 10.7034H15.3277Z" fill="#0742A6"/>
<path fill-rule="evenodd" clip-rule="evenodd" d="M10.9719 10.7034H7.26156L7.2236 10.8791C10.1179 11.6006 12.0348 13.3399 12.8224 15.4303L12.0158 11.4343C11.883 10.879 11.4749 10.7217 10.9719 10.7034Z" fill="#0742A6"/>
<rect x="0.5" y="0.5" width="42" height="29" rx="2.5" stroke="#E6E7E8"/>
</svg>
